# xmcd
#
# Track frame offsets:
# 150
# 14919
# 33069
# 46470
# 65746
# 80026
# 92972
# 105507
# 117775
# 130670
# 148571
# 169778
#
# Disc length: 2469 seconds
#
#
# Revision: 1
# Processed by: cddbd v1.5.2PL0 Copyright (c) Steve Scherf et al.
# Submitted via: FreeRIP 2.951 
#
DISCID=a309a30c
DTITLE=Hank Williams Jr. - That's How They Do It In Dixie: The Essential Collection
DYEAR=2006
DGENRE=Country
TTITLE0=That's How They Do It In Dixie (With Big and Rich, Gretchen Wilson, and Van Zant)
TTITLE1=Family Tradition
TTITLE2=All My Rowdy Friends Are Coming Over Tonight
TTITLE3=A Country Boy Can Survive
TTITLE4=Whiskey Bent And Hellbound
TTITLE5=There's A Tear In My Beer (With Hank Williams, Sr.)
TTITLE6=If Heaven Ain't A Lot Like Dixie
TTITLE7=Born To Boogie
TTITLE8=Women I've Never Had
TTITLE9=Country State Of Mind
TTITLE10=My Name Is Bocephus
TTITLE11=Stirrin' It Up
EXTD=www.curb.com
EXTT0=
EXTT1=
EXTT2=
EXTT3=
EXTT4=
EXTT5=
EXTT6=
EXTT7=
EXTT8=
EXTT9=
EXTT10=
EXTT11=
PLAYORDER=
